<?xml version="1.0" encoding="utf-8"?>
<!-- Generator: Adobe Illustrator 24.2.0, SVG Export Plug-In . SVG Version: 6.00 Build 0)  -->
<svg version="1.1" id="Layer_1" xmlns="http://www.w3.org/2000/svg" xmlns:xlink="http://www.w3.org/1999/xlink" x="0px" y="0px"
	 viewBox="0 0 155 41" style="enable-background:new 0 0 155 41;" xml:space="preserve">
<style type="text/css">
	.st0{fill:#FFFFFF;}
	.st1{fill:url(#SVGID_1_);}
	.st2{fill:url(#SVGID_2_);}
	.st3{fill:none;}
	.st4{fill:url(#SVGID_3_);}
	.st5{fill:url(#SVGID_4_);}
	.st6{fill:url(#SVGID_5_);}
	.st7{fill:url(#SVGID_6_);}
	.st8{fill:url(#SVGID_7_);}
	.st9{fill:url(#SVGID_8_);}
	.st10{fill:url(#SVGID_9_);}
	.st11{fill:url(#SVGID_10_);}
	.st12{fill:url(#SVGID_11_);}
	.st13{fill:url(#SVGID_12_);}
	.st14{fill:url(#SVGID_13_);}
	.st15{fill:url(#SVGID_14_);}
	.st16{fill:url(#SVGID_15_);}
	.st17{fill:url(#SVGID_16_);}
	.st18{fill:url(#SVGID_17_);}
	.st19{fill:url(#SVGID_18_);}
	.st20{fill:url(#SVGID_19_);}
	.st21{fill:url(#SVGID_20_);}
	.st22{fill:url(#SVGID_21_);}
	.st23{fill:url(#SVGID_22_);}
	.st24{fill:url(#SVGID_23_);}
</style>
<path class="st0" d="M238.9-106.8v39.2H261v-7.9h-13.7v-31.3H238.9z"/>
<path class="st0" d="M302.9-87.2c0-11.3-9.1-20.3-20.5-20.3s-20.5,9-20.5,20.3s9.1,20.3,20.5,20.3S302.9-75.9,302.9-87.2z
	 M294.3-87.2c0,6.8-5.2,12.2-11.9,12.2s-11.9-5.4-11.9-12.2c0-6.8,5.2-12.2,11.9-12.2S294.3-93.9,294.3-87.2z"/>
<path class="st0" d="M346-97.4c-3.2-6.3-9.8-10.1-17.7-10.1c-11.3,0-20.5,9.1-20.5,20.3s9,20.3,20.4,20.3c11.2,0,19.4-8.4,19.4-19.4
	v-3.1h-20.4v7.1h11.4c-1.1,4.5-5.1,7.6-10.3,7.6c-6.7,0-12-5.5-12-12.4c0-6.9,5.3-12.4,11.9-12.4c4.5,0,8.2,2.1,10.1,5.9L346-97.4z"
	/>
<path class="st0" d="M393.2-87.2c0-11.3-9.1-20.3-20.5-20.3c-11.4,0-20.5,9-20.5,20.3s9.1,20.3,20.5,20.3
	C384.1-66.8,393.2-75.9,393.2-87.2z M384.5-87.2c0,6.8-5.2,12.2-11.9,12.2s-11.9-5.4-11.9-12.2c0-6.8,5.2-12.2,11.9-12.2
	S384.5-93.9,384.5-87.2z"/>
<g>
	<g>
		
			<linearGradient id="SVGID_1_" gradientUnits="userSpaceOnUse" x1="701.8433" y1="262.1837" x2="686.7371" y2="278.4519" gradientTransform="matrix(-1 0 0 -1 703.0098 286.5958)">
			<stop  offset="0" style="stop-color:#69CAD7"/>
			<stop  offset="0.5194" style="stop-color:#8A489C"/>
			<stop  offset="0.9974" style="stop-color:#E13794"/>
		</linearGradient>
		<path class="st1" d="M3.2,14.2v-0.7c0-0.2-0.2-0.3-0.3-0.3H2.2c-0.2,0-0.3,0.2-0.3,0.3l0,0.7c0,0.2,0.2,0.3,0.3,0.3h0.7
			C3.1,14.5,3.2,14.3,3.2,14.2z M4.1,18.3v-0.8c0-0.2-0.2-0.3-0.3-0.3H2.9c-0.2,0-0.3,0.2-0.3,0.3v0.8c0,0.2,0.2,0.3,0.3,0.3h0.8
			C3.9,18.7,4.1,18.5,4.1,18.3z M8.5,16.9L8.5,16.9c0,0.2-0.2,0.3-0.3,0.3H5.5c-0.2,0-0.3,0.2-0.3,0.3v0.8c0,0.2,0.2,0.3,0.3,0.3
			h2.7c0.2,0,0.3,0.2,0.3,0.3l0,0.3c0,0.2-0.2,0.3-0.3,0.3H7.5c-0.2,0-0.3,0.2-0.3,0.3v0.8c0,0.2,0.2,0.3,0.3,0.3h0.7
			c0.2,0,0.3,0.2,0.3,0.3l0,0.8c0,0.2,0.2,0.3,0.3,0.3l0.1,0c0.2,0,0.3-0.2,0.3-0.3v-5.4c0-0.2-0.2-0.3-0.3-0.3H8.9
			C8.7,16.6,8.5,16.7,8.5,16.9z M8.5,25v1c0,0.2-0.2,0.3-0.3,0.3H6.9c-0.2,0-0.3,0.2-0.3,0.3v0.8c0,0.2,0.2,0.3,0.3,0.3h1.3
			c0.2,0,0.3,0.2,0.3,0.3l0,0.8c0,0.2-0.2,0.3-0.3,0.3H4.4c-0.2,0-0.3,0.2-0.3,0.3v0.8c0,0.2,0.2,0.3,0.3,0.3l4.5,0
			c0.2,0,0.3-0.2,0.3-0.3V25c0-0.2-0.2-0.3-0.3-0.3l-0.1,0C8.7,24.7,8.5,24.9,8.5,25z M1.8,29.8l0,0.7c0,0.2,0.2,0.3,0.3,0.3l0.7,0
			c0.2,0,0.3-0.2,0.3-0.3v-0.7c0-0.2-0.2-0.3-0.3-0.3H2.2C2,29.4,1.8,29.6,1.8,29.8z M6.3,20.8v-0.8c0-0.2-0.2-0.3-0.3-0.3H3.6
			c-0.2,0-0.3,0.2-0.3,0.3v0.8c0,0.2,0.2,0.3,0.3,0.3h2.4C6.1,21.2,6.3,21,6.3,20.8z M5.3,11.2v-0.8c0-0.2-0.2-0.3-0.3-0.3l-4.3,0
			c-0.2,0-0.3,0.2-0.3,0.3v0.8c0,0.2,0.2,0.3,0.3,0.3H5C5.2,11.5,5.3,11.4,5.3,11.2z M8.5,8.7l0,1c0,0.2-0.2,0.3-0.3,0.3H6.9
			c-0.2,0-0.3,0.2-0.3,0.3v0.8c0,0.2,0.2,0.3,0.3,0.3h1.3c0.2,0,0.3,0.2,0.3,0.3v0.8c0,0.2-0.2,0.3-0.3,0.3H4.4
			c-0.2,0-0.3,0.2-0.3,0.3v0.8c0,0.2,0.2,0.3,0.3,0.3H9c0.2,0,0.3-0.2,0.3-0.3V8.7c0-0.2-0.2-0.3-0.3-0.3H8.9
			C8.7,8.4,8.5,8.6,8.5,8.7z M0.7,27.8H5c0.2,0,0.3-0.2,0.3-0.3v-0.8c0-0.2-0.2-0.3-0.3-0.3H0.7c-0.2,0-0.3,0.2-0.3,0.3v0.8
			C0.4,27.7,0.5,27.8,0.7,27.8z"/>
		<linearGradient id="SVGID_2_" gradientUnits="userSpaceOnUse" x1="9.3344" y1="31.9769" x2="9.3344" y2="31.9769">
			<stop  offset="0" style="stop-color:#69CAD7"/>
			<stop  offset="0.5194" style="stop-color:#8A489C"/>
			<stop  offset="0.9965" style="stop-color:#E13794"/>
		</linearGradient>
		<path class="st2" d="M9.3,32"/>
		<path class="st3" d="M14.8,11.8c0.3-0.1,0.5-0.3,0.6-0.5c0,0,0-0.1,0-0.1c0-0.1,0.1-0.4-0.1-0.6c-0.1-0.2-0.3-0.4-0.6-0.4l0,0
			c-0.1,0-0.2,0-0.3,0c-1.4,0.4-2.9,0.6-4.3,0.4V11c2.2,0.2,4-0.1,4.4-0.2c0.1,0,0.1,0,0.1,0c0.2,0,0.4,0.1,0.4,0.2
			c0,0.1,0,0.2,0,0.3c0,0.1-0.1,0.1-0.2,0.2c0,0,0,0,0,0c-0.2,0-1,0.2-2,0.3c-0.9,0.1-1.8,0-2.7,0v0.6
			C11.7,12.4,13.3,12.3,14.8,11.8z"/>
		
			<linearGradient id="SVGID_3_" gradientUnits="userSpaceOnUse" x1="666.2887" y1="163.1412" x2="665.7198" y2="163.7538" gradientTransform="matrix(-0.9694 -0.2456 0.2456 -0.9694 620.3105 338.2751)">
			<stop  offset="0" style="stop-color:#8A489C"/>
			<stop  offset="0.9965" style="stop-color:#E13794"/>
		</linearGradient>
		<path class="st4" d="M14.8,16c-0.1,0-0.1,0-0.2,0c-0.1,0-0.2,0.1-0.2,0.2c0,0.1-0.1,0.2,0,0.3c0.1,0.2,0.2,0.3,0.4,0.2
			c0.2-0.1,0.3-0.2,0.2-0.4C15.1,16.1,15,16,14.8,16z"/>
		
			<linearGradient id="SVGID_4_" gradientUnits="userSpaceOnUse" x1="662.2585" y1="181.3326" x2="661.6854" y2="181.9499" gradientTransform="matrix(-0.973 -0.2307 0.2307 -0.973 615.5164 343.4772)">
			<stop  offset="0.5194" style="stop-color:#8A489C"/>
			<stop  offset="0.9965" style="stop-color:#E13794"/>
		</linearGradient>
		<path class="st5" d="M13.3,13.7c0,0-0.1,0-0.1,0c0,0,0,0,0,0c-0.1,0-0.2,0.1-0.2,0.1c-0.1,0.1-0.1,0.2-0.1,0.3
			c0,0.2,0.2,0.3,0.4,0.3l0,0c0.1,0,0.2-0.1,0.2-0.1c0.1-0.1,0.1-0.2,0.1-0.3C13.6,13.9,13.5,13.8,13.3,13.7z"/>
		
			<linearGradient id="SVGID_5_" gradientUnits="userSpaceOnUse" x1="664.0403" y1="183.2956" x2="658.8966" y2="188.8349" gradientTransform="matrix(-0.973 -0.2307 0.2307 -0.973 615.5164 343.4772)">
			<stop  offset="0.4859" style="stop-color:#8A489C"/>
			<stop  offset="0.9965" style="stop-color:#E13794"/>
		</linearGradient>
		<path class="st6" d="M14,8.6c0.4-0.1,0.8-0.1,1.2,0c0.6,0.1,1.2,0.5,1.5,1.1c0.3,0.5,0.4,1.2,0.3,1.8c-0.2,0.8-0.8,1.5-1.6,1.8
			c-0.3,0.1-0.5,0.2-0.8,0.2c-0.2,0-0.3,0.2-0.3,0.4c0,0.2,0.2,0.3,0.4,0.3c0.3-0.1,0.6-0.1,0.9-0.2c0.5-0.2,1-0.5,1.4-0.9
			c0.4-0.4,0.6-0.9,0.7-1.4c0.2-0.8,0.1-1.6-0.4-2.3c-0.4-0.7-1.1-1.2-1.9-1.4c-0.5-0.1-1-0.1-1.5,0.1c-1.2,0.4-2.4,0.5-3.6,0.3V9
			C11.4,9.1,12.7,9,14,8.6z"/>
		
			<linearGradient id="SVGID_6_" gradientUnits="userSpaceOnUse" x1="666.089" y1="181.2673" x2="659.7979" y2="188.0423" gradientTransform="matrix(-0.973 -0.2307 0.2307 -0.973 615.5164 343.4772)">
			<stop  offset="0.5194" style="stop-color:#8A489C"/>
			<stop  offset="0.9965" style="stop-color:#E13794"/>
		</linearGradient>
		<path class="st7" d="M15,12.4c0.5-0.1,0.8-0.5,1-0.9c0-0.1,0-0.1,0.1-0.2c0.1-0.2,0.1-0.7-0.2-1.2c-0.2-0.4-0.6-0.6-1-0.7l0,0
			c-0.2-0.1-0.5,0-0.7,0c-1.3,0.4-2.7,0.5-4.1,0.4v0.7c1.4,0.2,2.9,0,4.3-0.4c0.1,0,0.2,0,0.3,0l0,0c0.2,0.1,0.4,0.2,0.6,0.4
			c0.2,0.3,0.1,0.5,0.1,0.6c0,0,0,0.1,0,0.1c-0.1,0.3-0.3,0.5-0.6,0.5c-1.5,0.5-3.1,0.6-4.7,0.5v0.7C11.8,13.1,13.5,12.9,15,12.4z"
			/>
		
			<linearGradient id="SVGID_7_" gradientUnits="userSpaceOnUse" x1="672.447" y1="99.9774" x2="661.9541" y2="111.2774" gradientTransform="matrix(-0.9431 -0.3324 0.3324 -0.9431 610.4672 347.8997)">
			<stop  offset="0" style="stop-color:#69CAD7"/>
			<stop  offset="0.5194" style="stop-color:#8A489C"/>
			<stop  offset="0.9965" style="stop-color:#E13794"/>
		</linearGradient>
		<path class="st8" d="M13.8,26.9c1.9-0.2,3.9-0.7,5.7-1.4c0.2-0.1,0.4-0.1,0.5,0c0.2,0.1,0.4,0.2,0.5,0.4c0.1,0.2,0.1,0.4,0,0.7
			c0,0,0,0,0,0c-0.1,0.2-0.3,0.4-0.5,0.5c-2,0.7-4,1.2-6.2,1.5c-0.2,0-0.3,0.2-0.3,0.4c0,0.2,0.2,0.3,0.4,0.3
			c2.2-0.3,4.3-0.8,6.3-1.5c0.4-0.1,0.7-0.5,0.9-0.9c0,0,0-0.1,0-0.1c0.1-0.4,0.1-0.8-0.1-1.2c-0.2-0.4-0.5-0.7-0.9-0.8l0,0
			c-0.2-0.1-0.6-0.2-1,0c-1.8,0.6-3.6,1.1-5.5,1.3c-1.2,0.1-2.4,0.2-3.6,0.2v0.7C11.3,27.1,12.6,27,13.8,26.9z"/>
		
			<linearGradient id="SVGID_8_" gradientUnits="userSpaceOnUse" x1="668.3843" y1="100.3089" x2="665.4973" y2="103.4179" gradientTransform="matrix(-0.9431 -0.3324 0.3324 -0.9431 610.4672 347.8997)">
			<stop  offset="0" style="stop-color:#69CAD7"/>
			<stop  offset="0.8199" style="stop-color:#8A489C"/>
		</linearGradient>
		<path class="st9" d="M15.1,30c-0.1,0-0.1,0-0.2,0c-0.2,0-0.3,0.2-0.3,0.4c0,0.2,0.2,0.3,0.4,0.3c0.2,0,0.3-0.2,0.3-0.4
			C15.3,30.2,15.2,30,15.1,30z"/>
		
			<linearGradient id="SVGID_9_" gradientUnits="userSpaceOnUse" x1="664.4129" y1="162.5423" x2="663.8436" y2="163.1555" gradientTransform="matrix(-0.9694 -0.2456 0.2456 -0.9694 620.3105 338.2751)">
			<stop  offset="0" style="stop-color:#8A489C"/>
			<stop  offset="0.9965" style="stop-color:#E13794"/>
		</linearGradient>
		<path class="st10" d="M16.6,17.7c0.2-0.1,0.3-0.3,0.2-0.4c0-0.1-0.1-0.2-0.2-0.2c-0.1,0-0.1,0-0.2,0c-0.1,0-0.2,0.1-0.2,0.2
			c0,0.1,0,0.2,0,0.3C16.2,17.7,16.4,17.7,16.6,17.7z"/>
		
			<linearGradient id="SVGID_10_" gradientUnits="userSpaceOnUse" x1="673.5496" y1="104.7052" x2="664.0716" y2="114.9123" gradientTransform="matrix(-0.9431 -0.3324 0.3324 -0.9431 610.4672 347.8997)">
			<stop  offset="0" style="stop-color:#69CAD7"/>
			<stop  offset="0.5194" style="stop-color:#8A489C"/>
			<stop  offset="0.9965" style="stop-color:#E13794"/>
		</linearGradient>
		<path class="st11" d="M10,25.1c0,0,0,0.1,0,0.1c0,0.1,0.1,0.2,0.2,0.3v-0.6C10.1,25,10,25,10,25.1z"/>
		
			<linearGradient id="SVGID_11_" gradientUnits="userSpaceOnUse" x1="670.53" y1="101.897" x2="661.0519" y2="112.1041" gradientTransform="matrix(-0.9431 -0.3324 0.3324 -0.9431 610.4672 347.8997)">
			<stop  offset="0" style="stop-color:#69CAD7"/>
			<stop  offset="0.5194" style="stop-color:#8A489C"/>
			<stop  offset="0.9965" style="stop-color:#E13794"/>
		</linearGradient>
		<path class="st12" d="M22.5,25c-0.4-0.7-1-1.3-1.7-1.6c-0.7-0.2-1.4-0.2-2,0c-2.7,1-5.5,1.5-8.4,1.4c-0.1,0-0.1,0-0.2,0v0.6
			c0,0,0.1,0,0.2,0c3,0,5.9-0.5,8.6-1.5c0.5-0.2,1-0.2,1.6,0c0.6,0.2,1.1,0.6,1.4,1.2c0.3,0.6,0.3,1.2,0.1,1.8
			c-0.2,0.7-0.8,1.2-1.4,1.5c-1.4,0.5-2.8,0.9-4.3,1.2c-0.2,0-0.3,0.2-0.3,0.4c0,0.2,0.2,0.3,0.4,0.3c1.5-0.3,3-0.7,4.4-1.2
			c0.9-0.3,1.5-1,1.8-1.9C22.9,26.6,22.8,25.8,22.5,25z"/>
		
			<linearGradient id="SVGID_12_" gradientUnits="userSpaceOnUse" x1="671.2156" y1="153.2601" x2="658.278" y2="167.193" gradientTransform="matrix(-0.9694 -0.2456 0.2456 -0.9694 620.3105 338.2751)">
			<stop  offset="0" style="stop-color:#69CAD7"/>
			<stop  offset="0.5194" style="stop-color:#8A489C"/>
			<stop  offset="0.9965" style="stop-color:#E13794"/>
		</linearGradient>
		<path class="st13" d="M18.7,21c0.9-0.4,1.5-1.1,1.7-2c0.2-0.8,0.1-1.6-0.3-2.3c-0.4-0.7-1.1-1.2-1.9-1.4c-0.6-0.2-1.2-0.1-1.8,0.1
			c-0.1,0-0.2,0.1-0.2,0.2c0,0.1,0,0.1,0,0.2c0.1,0.2,0.3,0.3,0.4,0.2c0.5-0.2,1-0.2,1.4-0.1c0.6,0.2,1.1,0.5,1.5,1.1c0,0,0,0,0,0
			c0.3,0.5,0.4,1.2,0.3,1.8c-0.2,0.7-0.7,1.3-1.4,1.6c-2,0.9-4.2,1.2-6.4,1.4c-0.6,0.1-1.3,0.1-1.9,0.1v0.7c0.7,0,1.3,0,2-0.1
			C14.4,22.3,16.6,21.9,18.7,21z"/>
		
			<linearGradient id="SVGID_13_" gradientUnits="userSpaceOnUse" x1="665.4904" y1="181.9256" x2="660.9224" y2="186.845" gradientTransform="matrix(-0.973 -0.2307 0.2307 -0.973 615.5164 343.4772)">
			<stop  offset="0.5194" style="stop-color:#8A489C"/>
			<stop  offset="0.9965" style="stop-color:#E13794"/>
		</linearGradient>
		<path class="st14" d="M12.8,11.7c1.1-0.1,1.8-0.2,2-0.3c0,0,0,0,0,0c0.1,0,0.2-0.1,0.2-0.2c0-0.1,0.1-0.2,0-0.3
			c0-0.2-0.2-0.3-0.4-0.2c0,0,0,0-0.1,0c-0.4,0.1-2.2,0.4-4.4,0.2v0.7C11,11.8,11.9,11.8,12.8,11.7z"/>
		
			<linearGradient id="SVGID_14_" gradientUnits="userSpaceOnUse" x1="670.5926" y1="101.2177" x2="668.1132" y2="103.8878" gradientTransform="matrix(-0.9431 -0.3324 0.3324 -0.9431 610.4672 347.8997)">
			<stop  offset="0.1155" style="stop-color:#69CAD7"/>
			<stop  offset="0.6942" style="stop-color:#E13794"/>
		</linearGradient>
		<path class="st15" d="M12.5,28.7c-0.1,0-0.2,0-0.2,0.1c-0.1,0.1-0.1,0.2-0.1,0.2c0,0.2,0.2,0.3,0.4,0.3c0.1,0,0.2,0,0.2-0.1
			c0.1-0.1,0.1-0.2,0.1-0.2c0-0.1-0.1-0.2-0.2-0.3C12.6,28.7,12.6,28.7,12.5,28.7z"/>
		
			<linearGradient id="SVGID_15_" gradientUnits="userSpaceOnUse" x1="676.1686" y1="95.9608" x2="662.1559" y2="111.0514" gradientTransform="matrix(-0.9431 -0.3324 0.3324 -0.9431 610.4672 347.8997)">
			<stop  offset="0.3184" style="stop-color:#69CAD7"/>
			<stop  offset="0.7653" style="stop-color:#8A489C"/>
			<stop  offset="0.9965" style="stop-color:#E13794"/>
		</linearGradient>
		<path class="st16" d="M14,28.1c3.2-0.4,5.4-1.1,5.8-1.3c0,0,0,0,0,0c0.2-0.1,0.3-0.3,0.2-0.4c0-0.1-0.1-0.2-0.2-0.2
			c-0.1,0-0.2,0-0.2,0c0,0-0.1,0-0.4,0.1c-0.9,0.3-3.2,1-6.4,1.2c-0.9,0.1-1.8,0.1-2.6,0.1v0.7C11.4,28.3,12.7,28.3,14,28.1z"/>
		
			<linearGradient id="SVGID_16_" gradientUnits="userSpaceOnUse" x1="677.0477" y1="95.5996" x2="670.0818" y2="103.1013" gradientTransform="matrix(-0.9431 -0.3324 0.3324 -0.9431 610.4672 347.8997)">
			<stop  offset="0.6592" style="stop-color:#69CAD7"/>
			<stop  offset="0.9294" style="stop-color:#E13794"/>
		</linearGradient>
		<path class="st17" d="M10.7,29.5c0.1,0,0.3-0.1,0.3-0.2c0,0,0-0.1,0-0.1c0-0.2-0.2-0.3-0.3-0.3c-0.2,0-0.4,0-0.6,0v0.7
			C10.3,29.5,10.5,29.5,10.7,29.5z"/>
		
			<linearGradient id="SVGID_17_" gradientUnits="userSpaceOnUse" x1="676.3279" y1="93.7613" x2="667.3605" y2="103.4185" gradientTransform="matrix(-0.9431 -0.3324 0.3324 -0.9431 610.4672 347.8997)">
			<stop  offset="0" style="stop-color:#69CAD7"/>
			<stop  offset="0.5838" style="stop-color:#63C8D8"/>
			<stop  offset="0.9965" style="stop-color:#E13794"/>
		</linearGradient>
		<path class="st18" d="M13.1,30.9c0.1,0,0.2-0.1,0.3-0.2c0,0,0-0.1,0-0.1c0-0.1-0.1-0.2-0.2-0.3c0,0-0.1,0-0.1,0c-1,0.1-2,0-2.9,0
			v0.7C11.1,30.9,12.1,30.9,13.1,30.9z"/>
		
			<linearGradient id="SVGID_18_" gradientUnits="userSpaceOnUse" x1="665.7759" y1="179.4128" x2="663.3454" y2="182.0303" gradientTransform="matrix(-0.973 -0.2307 0.2307 -0.973 615.5164 343.4772)">
			<stop  offset="0" style="stop-color:#69CAD7"/>
			<stop  offset="0.5194" style="stop-color:#8A489C"/>
			<stop  offset="0.9965" style="stop-color:#E13794"/>
		</linearGradient>
		<path class="st19" d="M11.7,14.3C11.7,14.2,11.7,14.2,11.7,14.3c0-0.3-0.1-0.4-0.3-0.4c0,0,0,0,0,0c-0.4,0-0.8,0-1.2-0.1v0.7
			c0.4,0,0.8,0.1,1.2,0.1C11.5,14.5,11.7,14.4,11.7,14.3z"/>
		
			<linearGradient id="SVGID_19_" gradientUnits="userSpaceOnUse" x1="671.9437" y1="158.769" x2="666.4607" y2="164.6738" gradientTransform="matrix(-0.9694 -0.2456 0.2456 -0.9694 620.3105 338.2751)">
			<stop  offset="0" style="stop-color:#69CAD7"/>
			<stop  offset="0.5194" style="stop-color:#8A489C"/>
			<stop  offset="0.9965" style="stop-color:#E13794"/>
		</linearGradient>
		<path class="st20" d="M13.5,17c0.1,0,0.2-0.1,0.2-0.1c0.1-0.1,0.1-0.2,0-0.3c0-0.2-0.2-0.3-0.4-0.3c-1.1,0.2-2.2,0.3-3.3,0.3v0.7
			C11.3,17.3,12.4,17.2,13.5,17z"/>
		
			<linearGradient id="SVGID_20_" gradientUnits="userSpaceOnUse" x1="671.5385" y1="156.8872" x2="664.4291" y2="164.5435" gradientTransform="matrix(-0.9694 -0.2456 0.2456 -0.9694 620.3105 338.2751)">
			<stop  offset="0" style="stop-color:#69CAD7"/>
			<stop  offset="0.5194" style="stop-color:#8A489C"/>
			<stop  offset="0.9965" style="stop-color:#E13794"/>
		</linearGradient>
		<path class="st21" d="M15.3,18.1c0.1,0,0.2-0.1,0.2-0.2c0-0.1,0.1-0.2,0-0.3c-0.1-0.2-0.2-0.3-0.4-0.2c-1.5,0.4-3,0.7-4.6,0.7
			c-0.1,0-0.3,0-0.4,0v0.7c0.1,0,0.3,0,0.4,0C12.1,18.8,13.7,18.6,15.3,18.1z"/>
		
			<linearGradient id="SVGID_21_" gradientUnits="userSpaceOnUse" x1="670.9416" y1="153.9731" x2="659.9017" y2="165.8622" gradientTransform="matrix(-0.9694 -0.2456 0.2456 -0.9694 620.3105 338.2751)">
			<stop  offset="0" style="stop-color:#69CAD7"/>
			<stop  offset="0.5194" style="stop-color:#8A489C"/>
			<stop  offset="0.9965" style="stop-color:#E13794"/>
		</linearGradient>
		<path class="st22" d="M18.1,19.6c0.6-0.2,0.8-0.7,0.8-0.9c0,0,0-0.1,0-0.1c0.1-0.4,0-0.8-0.2-1.2c-0.1-0.2-0.2-0.3-0.4-0.4
			c0,0-0.1,0-0.1-0.1c-0.1,0-0.3,0-0.4,0.1c0,0,0,0.1-0.1,0.1c0,0.1,0,0.3,0.1,0.3c0.1,0.1,0.2,0.1,0.2,0.2c0.1,0.2,0.2,0.4,0.1,0.7
			c0,0,0,0,0,0.1c-0.1,0.2-0.2,0.4-0.5,0.5c-2.5,1-5.1,1.6-7.7,1.5v0.7C12.8,21.3,15.5,20.7,18.1,19.6z"/>
		
			<linearGradient id="SVGID_22_" gradientUnits="userSpaceOnUse" x1="671.1241" y1="155.3162" x2="661.8137" y2="165.3427" gradientTransform="matrix(-0.9694 -0.2456 0.2456 -0.9694 620.3105 338.2751)">
			<stop  offset="0" style="stop-color:#69CAD7"/>
			<stop  offset="0.5194" style="stop-color:#8A489C"/>
			<stop  offset="0.9965" style="stop-color:#E13794"/>
		</linearGradient>
		<path class="st23" d="M17.7,18.7c0.2-0.1,0.3-0.3,0.2-0.4c0-0.1-0.1-0.2-0.2-0.2c-0.1,0-0.1,0-0.2,0c0,0,0,0,0,0c0,0,0,0,0,0
			c-0.1,0-0.1,0.1-0.2,0.1c-0.6,0.2-2.1,0.7-4.2,1c-1,0.1-1.9,0.2-2.8,0.2V20C14.2,20,17.2,18.8,17.7,18.7
			C17.7,18.7,17.7,18.7,17.7,18.7z"/>
	</g>
	<path class="st3" d="M125.1,31.1c2.2,1.2,4.4,2.2,6.4,3.2c1.5,0.7,3.8,1.5,4.1,1c0.3-0.5-1.4-2.2-2.6-3.3c-0.1-0.1-0.3-0.2-0.4-0.3
		H129C127.6,31.6,126.3,31.4,125.1,31.1z"/>
	<path class="st3" d="M38.5,15.9c-0.5-0.5-1.1-0.9-1.8-1.2c-0.7-0.3-1.4-0.4-2.1-0.4h-3.8v10.9h3.8c0.8,0,1.5-0.1,2.1-0.4
		c0.7-0.3,1.3-0.7,1.8-1.2c0.5-0.5,0.9-1.1,1.2-1.7c0.3-0.7,0.4-1.4,0.4-2.1c0-0.8-0.1-1.5-0.4-2.2C39.3,17,39,16.4,38.5,15.9z"/>
	<path class="st3" d="M89.9,18.5c0.5-0.5,0.8-1.1,0.8-1.9c0-0.8-0.3-1.4-0.8-1.9c-0.5-0.5-1.2-0.7-2.1-0.7h-4.3v5.3h4.3
		C88.6,19.2,89.3,19,89.9,18.5z"/>
	<path class="st3" d="M105.1,19c1.3,0.9,2.6,1.7,3.9,2.6l-2.4-7.2L105.1,19z"/>
	<path class="st0" d="M43,11.4c-1.1-1.1-2.3-1.9-3.8-2.5c-1.4-0.6-3-0.9-4.7-0.9H24v23.6h10.6c1.7,0,3.2-0.3,4.7-0.9
		c1.4-0.6,2.7-1.5,3.8-2.5c1.1-1.1,1.9-2.3,2.5-3.7c0.6-1.4,0.9-3,0.9-4.6c0-1.6-0.3-3.2-0.9-4.6C44.9,13.7,44,12.5,43,11.4z
		 M39.6,21.9c-0.3,0.7-0.7,1.2-1.2,1.7c-0.5,0.5-1.1,0.9-1.8,1.2c-0.7,0.3-1.4,0.4-2.1,0.4h-3.8V14.3h3.8c0.8,0,1.5,0.1,2.1,0.4
		c0.7,0.3,1.3,0.7,1.8,1.2c0.5,0.5,0.9,1.1,1.2,1.7c0.3,0.7,0.4,1.4,0.4,2.2C40,20.6,39.9,21.3,39.6,21.9z"/>
	<path class="st0" d="M60.6,8.5c-0.7,0.3-1.3,0.7-1.8,1.3c-0.5,0.5-0.9,1.1-1.2,1.8c-0.3,0.7-0.4,1.4-0.4,2.1c0,1.1,0.2,2,0.7,2.8
		c0.4,0.8,1.2,1.7,2.2,2.5l4.8,4c0.2,0.2,0.4,0.4,0.5,0.6c0.1,0.2,0.1,0.4,0.1,0.6c0,0.3-0.1,0.6-0.3,0.8c-0.2,0.2-0.5,0.3-0.8,0.3
		h-9.1v6.3h12.9c0.9,0,1.7-0.2,2.4-0.5c0.7-0.3,1.3-0.7,1.8-1.2c0.5-0.5,0.9-1.1,1.2-1.8c0.3-0.7,0.4-1.4,0.4-2.1c0-1-0.3-2-0.8-2.9
		c-0.5-0.9-1.2-1.7-2.1-2.5l-4.7-3.9c-0.3-0.2-0.5-0.5-0.6-0.6c-0.1-0.2-0.2-0.4-0.2-0.6c0-0.3,0.1-0.5,0.3-0.7
		c0.2-0.2,0.5-0.3,0.9-0.3h9.1V8H63C62.1,8,61.3,8.2,60.6,8.5z"/>
	<path class="st0" d="M96.6,12.6c-0.4-1-1-1.8-1.7-2.5c-0.7-0.7-1.6-1.2-2.6-1.6c-0.5-0.2-1.1-0.3-1.7-0.4c1.9,1.6,4,3.2,6.2,4.9
		C96.7,12.9,96.6,12.7,96.6,12.6z"/>
	<path class="st0" d="M76.7,8v23.6h6.8v-7.5H89c1.1,0,2.2-0.2,3.2-0.6c1-0.4,1.9-0.9,2.6-1.6c0.7-0.7,1.3-1.5,1.7-2.6
		c0.1-0.1,0.1-0.3,0.2-0.4c-5.5-4-10.2-7.8-13.6-11H76.7z M83.5,13.9h4.3c0.8,0,1.5,0.2,2.1,0.7c0.5,0.5,0.8,1.1,0.8,1.9
		c0,0.8-0.3,1.4-0.8,1.9c-0.5,0.5-1.2,0.7-2.1,0.7h-4.3V13.9z"/>
	<path class="st0" d="M106.7,14.4l2.4,7.2c0.2,0.1,0.4,0.3,0.6,0.4c2.8,1.8,5.7,3.6,8.5,5.2L111.3,8h-8.9l-2.6,7.3
		c1.7,1.2,3.5,2.5,5.3,3.7L106.7,14.4z"/>
	<path class="st0" d="M111.8,31.6h4.3c-1.7-1-3.4-2-5.2-3.1L111.8,31.6z"/>
	<path class="st0" d="M129,31.6h3.6c-0.8-0.7-1.6-1.4-2.5-2.1c0.5-0.9,0.9-1.8,1.3-2.7c1.7,1.4,3.3,2.7,4.8,4v-5.6h-6
		c-1.8,0-3.1-0.5-4-1.4c-0.9-0.9-1.4-2.3-1.4-4.1c0-1.8,0.5-3.2,1.4-4.1c0.9-0.9,2.3-1.4,4-1.4h6V8H129c-1.6,0-3.1,0.2-4.5,0.7
		c-1.3,0.5-2.5,1.2-3.5,2.2c-1,1-1.7,2.2-2.2,3.7c-0.5,1.5-0.8,3.2-0.8,5.2c0,2,0.3,3.7,0.8,5.2c0.5,1.5,1.3,2.7,2.2,3.7
		c0.1,0.1,0.3,0.3,0.4,0.4c1.2,0.7,2.5,1.4,3.7,2C126.3,31.4,127.6,31.6,129,31.6z"/>
	<path class="st0" d="M154.9,25.2h-11.2v-3h10.5v-5h-10.5v-3h10.6V8h-17.3v23.6c0,0,0.1,0,0.1,0.1h17.9V25.2z"/>
	<path class="st0" d="M130.1,29.5c0.9,0.7,1.7,1.4,2.5,2.1h3.6v-0.8c-1.4-1.3-3-2.6-4.8-4C131,27.7,130.6,28.6,130.1,29.5z"/>
	<path class="st0" d="M125.1,31.1c-1.2-0.6-2.4-1.3-3.7-2c0.9,0.8,1.9,1.4,3,1.8C124.7,30.9,124.9,31,125.1,31.1z"/>
	<path class="st0" d="M136.9,31.6L136.9,31.6C137,31.6,137,31.5,136.9,31.6L136.9,31.6z"/>
	<g>
		<path class="st0" d="M98.1,20L94,31.6h7.4l1.2-4.1l1.1-3.6C101.8,22.6,99.9,21.3,98.1,20z"/>
	</g>
	<g>
		<linearGradient id="SVGID_23_" gradientUnits="userSpaceOnUse" x1="79.8597" y1="20.439" x2="141.5911" y2="20.439">
			<stop  offset="0" style="stop-color:#69CAD7"/>
			<stop  offset="0.5194" style="stop-color:#8A489C"/>
			<stop  offset="0.9974" style="stop-color:#E13794"/>
		</linearGradient>
		<path class="st24" d="M135.7,31.6h-4c1,0.9,1.9,2.1,1.7,2.4c-0.3,0.4-2.4-0.3-3.7-0.9c-5.8-2.7-12.9-6.7-19.9-11.2
			c-7-4.5-13.6-9.3-18.4-13.5c-1.1-1-2.7-2.6-2.4-3c0.3-0.4,2.4,0.3,3.7,0.9c0.5,0.2,1.1,0.5,1.6,0.8c0.6-0.8,1.1-1.5,1.8-2.1
			c-8.6-4.2-14.9-6-16-4.2c-1.8,2.9,10.4,14,27.3,24.9c16.9,10.9,32.2,17.4,34,14.5C142.3,38.8,140.1,35.7,135.7,31.6z"/>
	</g>
</g>
</svg>
